<?xml version="1.0" encoding="UTF-8"?>
<svg xmlns="http://www.w3.org/2000/svg" xmlns:xlink="http://www.w3.org/1999/xlink" width="149pt" height="133pt" viewBox="0 0 149 133" version="1.1">
<g id="surface1">
<path style="fill:none;stroke-width:4;stroke-linecap:round;stroke-linejoin:round;stroke:rgb(0%,0%,0%);stroke-opacity:1;stroke-miterlimit:10;" d="M 56 734 C 59.125 771.441406 90.425781 800.238281 128 800.238281 C 165.574219 800.238281 196.875 771.441406 200 734 " transform="matrix(1,0,0,-1,-53,834)"/>
<path style="fill:none;stroke-width:4;stroke-linecap:round;stroke-linejoin:round;stroke:rgb(0%,0%,0%);stroke-opacity:1;stroke-miterlimit:10;" d="M 104 728 C 104 741.253906 114.746094 752 128 752 C 141.253906 752 152 741.253906 152 728 " transform="matrix(1,0,0,-1,-53,834)"/>
<path style="fill:none;stroke-width:4;stroke-linecap:round;stroke-linejoin:round;stroke:rgb(0%,0%,0%);stroke-opacity:1;stroke-miterlimit:10;" d="M 56 734 L 104 728 " transform="matrix(1,0,0,-1,-53,834)"/>
<path style="fill:none;stroke-width:4;stroke-linecap:round;stroke-linejoin:round;stroke:rgb(0%,0%,0%);stroke-opacity:1;stroke-miterlimit:10;" d="M 152 728 L 200 734 " transform="matrix(1,0,0,-1,-53,834)"/>
</g>
</svg>
